<svg width="131" height="74" viewBox="0 0 131 74" fill="none" xmlns="http://www.w3.org/2000/svg">
<path d="M81.6848 6.22656V8.88153H84.1829V21.915H87.0551V8.88153H89.5532V6.22656H81.6848Z" fill="black"/>
<path d="M93.0995 6.22656H90.2274V21.915H93.0995V15.0724H95.1801V21.915H98.0523V6.22656H95.1801V12.4175H93.0995V6.22656Z" fill="black"/>
<path d="M106.349 6.22656H99.3491V21.915H106.349V19.2601H102.221V15.0724H105.501V12.4175H102.221V8.88153H106.349V6.22656Z" fill="black"/>
<path d="M81.6848 28.1904V30.8454H84.1829V43.8789H87.0551V30.8454H89.5532V28.1904H81.6848Z" fill="black"/>
<path fill-rule="evenodd" clip-rule="evenodd" d="M94.0095 28.1904H90.2274V43.8789H93.0995V37.3621H93.6836C94.2025 37.3621 94.4951 37.4925 94.6455 37.683L94.6479 37.686L94.6503 37.689C94.824 37.8952 94.9411 38.3049 94.9411 38.9889V41.7694C94.9411 42.3333 94.9553 42.7392 94.9867 42.9743C95.0182 43.2108 95.0807 43.4588 95.1721 43.7178L95.2289 43.8789H98.204L98.0532 43.5395C97.9467 43.2998 97.8815 43.0634 97.8554 42.8297C97.8277 42.5663 97.8133 42.221 97.8133 41.7911V39.1192C97.8133 38.2043 97.6886 37.4496 97.4231 36.8704C97.2284 36.4214 96.9219 36.0839 96.512 35.8612C96.8756 35.6283 97.1637 35.3096 97.3732 34.9081C97.6576 34.363 97.7916 33.6766 97.7916 32.8632V31.9291C97.7916 30.7091 97.5021 29.759 96.8748 29.131C96.2455 28.4865 95.2713 28.1904 94.0095 28.1904ZM94.6208 34.4086L94.6182 34.4111L94.6157 34.4138C94.4459 34.5943 94.1665 34.7072 93.7271 34.7072H93.0995V30.8454H93.9443C94.3178 30.8454 94.5373 30.953 94.6649 31.1199L94.6676 31.1234L94.6703 31.1267C94.8196 31.3079 94.9194 31.6369 94.9194 32.168V33.341C94.9194 33.8965 94.7996 34.2298 94.6208 34.4086Z" fill="black"/>
<path fill-rule="evenodd" clip-rule="evenodd" d="M104.518 28.1904H100.871L98.316 43.8789H101.024L101.459 40.9029H103.762L104.191 43.8789H107.073L104.518 28.1904ZM101.81 38.3565L102.599 32.6657L103.405 38.3565H101.81Z" fill="black"/>
<path d="M109.326 28.1904H106.423L108.798 43.8789H112.385L114.761 28.1904H112.075L110.7 38.5547L109.326 28.1904Z" fill="black"/>
<path d="M122.386 28.1904H115.386V43.8789H122.386V41.2239H118.259V37.0363H121.539V34.3813H118.259V30.8454H122.386V28.1904Z" fill="black"/>
<path d="M126.15 28.1904H123.278V43.8789H130.082V41.2239H126.15V28.1904Z" fill="black"/>
<path fill-rule="evenodd" clip-rule="evenodd" d="M86.1621 50.1542H82.3148V65.8427H86.3141C87.5408 65.8427 88.5099 65.5281 89.1784 64.8597C89.8598 64.1782 90.1831 63.2105 90.1831 61.9954V60.6921C90.1831 59.8123 90.0307 59.0758 89.7069 58.4994C89.4575 58.0553 89.1112 57.715 88.6735 57.4804C89.0394 57.2446 89.3251 56.9248 89.5265 56.5231C89.8106 55.9852 89.9442 55.3063 89.9442 54.5012V53.8929C89.9442 52.673 89.6547 51.723 89.0274 51.095C88.3982 50.4504 87.4239 50.1542 86.1621 50.1542ZM86.7734 56.0466L86.7708 56.0492L86.7683 56.0518C86.5984 56.2323 86.3191 56.3452 85.8797 56.3452H85.187V52.8092H86.0969C86.4704 52.8092 86.6899 52.9169 86.8175 53.0838L86.8202 53.0872L86.8229 53.0906C86.9722 53.2718 87.072 53.6007 87.072 54.1319V54.9791C87.072 55.5345 86.9522 55.8678 86.7734 56.0466ZM86.9984 59.327L87.0028 59.3322L87.0075 59.3372C87.1862 59.5264 87.3109 59.9211 87.3109 60.6052V61.9303C87.3109 62.4604 87.2114 62.7764 87.069 62.9415C86.9279 63.0907 86.693 63.1877 86.3141 63.1877H85.187V59.0001H86.01C86.5271 59.0001 86.8324 59.1298 86.9984 59.327Z" fill="black"/>
<path d="M91.9857 65.0038L91.9875 65.0057C92.654 65.7199 93.6098 66.0599 94.8141 66.0599C96.0184 66.0599 96.9741 65.7199 97.6407 65.0058L97.6424 65.0038C98.3041 64.2791 98.6179 63.2644 98.6179 61.9954V50.1542H95.8326V62.1692C95.8326 62.6663 95.7274 62.9679 95.572 63.1337L95.5692 63.1367L95.5665 63.1398C95.4214 63.3057 95.1991 63.405 94.8575 63.405C94.5187 63.405 94.2854 63.307 94.1241 63.1368C93.9803 62.9701 93.8824 62.6664 93.8824 62.1692V50.1542H91.0102V61.9954C91.0102 63.2644 91.324 64.2791 91.9857 65.0038Z" fill="black"/>
<path fill-rule="evenodd" clip-rule="evenodd" d="M103.728 50.1542H99.837V65.8427H103.728C104.957 65.8427 105.922 65.5121 106.576 64.8101C107.226 64.1127 107.532 63.1101 107.532 61.8434V54.1536C107.532 52.8869 107.226 51.8843 106.576 51.1869C105.922 50.4849 104.957 50.1542 103.728 50.1542ZM104.399 62.9165L104.396 62.9195L104.393 62.9226C104.248 63.0884 104.026 63.1877 103.684 63.1877H102.709V52.8092H103.684C104.026 52.8092 104.248 52.9085 104.393 53.0744L104.396 53.0775L104.399 53.0805C104.554 53.2463 104.659 53.5479 104.659 54.045V61.952C104.659 62.4491 104.554 62.7507 104.399 62.9165Z" fill="black"/>
<path fill-rule="evenodd" clip-rule="evenodd" d="M112.553 50.1542H108.662V65.8427H112.553C113.782 65.8427 114.747 65.5121 115.401 64.8101C116.051 64.1127 116.356 63.1101 116.356 61.8434V54.1536C116.356 52.8869 116.051 51.8843 115.401 51.1869C114.747 50.4849 113.782 50.1542 112.553 50.1542ZM113.224 62.9165L113.221 62.9195L113.218 62.9226C113.073 63.0884 112.851 63.1877 112.509 63.1877H111.534V52.8092H112.509C112.851 52.8092 113.073 52.9085 113.218 53.0744L113.221 53.0775L113.224 53.0805C113.379 53.2463 113.484 53.5479 113.484 54.045V61.952C113.484 62.4491 113.379 62.7507 113.224 62.9165Z" fill="black"/>
<path d="M119.373 50.1542L120.843 55.1912L122.313 50.1542H125.153L122.171 59.1669V65.8427H119.299V59.1669L116.317 50.1542H119.373Z" fill="black"/>
<path fill-rule="evenodd" clip-rule="evenodd" d="M43.6221 61.6748C39.1385 67.7339 33.3798 70.4028 29.084 70.5981C21.1191 70.9601 18.6216 66.9789 18.7055 63.9606C18.7793 61.303 20.7047 59.6991 22.8793 58.6516C24.2596 57.9868 25.7403 57.5462 26.9117 57.2025C25.7516 56.6566 24.6022 55.8017 23.5471 54.7255C21.461 52.5972 19.7439 49.6031 19.0423 46.4189C18.8439 45.5181 18.7267 44.6022 18.7055 43.6863C18.6701 42.165 18.8598 40.8016 19.1839 39.5854C20.0041 36.5069 21.6856 34.3717 22.7599 33.0077L22.8086 32.9458C22.7768 32.9537 22.7449 32.962 22.7128 32.9706C20.8954 33.4599 18.6823 35.034 17.3671 38.9798C17.0282 39.9963 16.8495 41.0466 16.679 42.0485C16.5792 42.6346 16.4823 43.2042 16.3578 43.7409C16.1711 44.5457 15.9223 45.2764 15.5089 45.8775C14.8055 46.9003 13.6258 47.5481 11.4646 47.5481C6.75811 47.5481 3.37905 44.7725 3.37905 41.7554C3.37906 38.135 8.0963 31.1761 13.1542 26.3217C18.6339 21.0625 24.3775 17.0159 24.3775 17.0159C24.3775 10.1372 29.446 7.12015 29.446 7.12015C29.446 5.41347 30.1701 3.37905 32.7044 3.37905C34.5606 3.48824 35.2313 4.19016 35.6997 4.68038C35.7491 4.73199 35.7961 4.78124 35.8421 4.82722C41.152 4.82722 45.4965 6.87879 47.1861 11.344L52.9787 14.8437C52.0024 17.4472 49.271 20.9282 46.625 21.6056C46.3273 21.6818 46.0308 21.7225 45.7379 21.7225C43.5598 21.7225 38.7384 19.1882 38.7384 19.1882C40.1343 20.698 42.8817 23.5069 45.7379 24.9836C45.8133 25.0226 45.8888 25.0606 45.9643 25.0977C47.0679 25.6395 48.1828 25.9727 49.2376 25.9463C52.1679 25.873 54.5646 24.5546 56.4276 23.5297C57.6336 22.8663 58.616 22.3259 59.3748 22.3259C61.3057 22.3259 66.4949 23.412 66.4949 30.2908C66.4949 37.1696 60.5812 38.8466 56.7198 38.9798C55.8333 39.0104 54.761 38.9248 53.6833 38.7897C52.9898 38.7028 52.294 38.5955 51.6442 38.4854C50.7512 38.3341 49.9448 38.1777 49.3497 38.0623C49.0691 38.0079 48.8355 37.9626 48.6619 37.9312C48.2442 37.8557 48.1742 37.861 48.6342 38.0143C49.3667 38.2585 50.0794 39.1349 50.6684 40.3158C50.9036 40.7874 51.1192 41.3077 51.3083 41.8556C51.8161 43.3262 52.134 44.9963 52.134 46.462C52.134 48.9795 51.0881 51.611 50.4444 52.6167C50.5815 52.8134 50.7495 53.0445 50.9433 53.2991C50.9604 53.3215 50.9777 53.3441 50.9951 53.3669C50.9953 53.3671 50.9955 53.3673 50.9956 53.3675C51.0921 53.4934 51.1946 53.6245 51.3025 53.7597C52.45 55.1976 54.2098 57.094 55.8751 57.9266C56.3826 58.1804 56.9373 58.3592 57.4801 58.5342C59.0185 59.0302 60.4609 59.4953 60.4609 61.547C60.4609 63.8426 56.359 69.874 50.2031 69.874C49.012 69.874 47.8629 69.6224 46.8651 69.2904C44.931 68.647 43.5656 67.7017 43.5656 67.7017C44.4857 67.0226 45.2149 66.1248 45.7922 65.1101C46.1259 64.5236 46.4088 63.8979 46.6486 63.2529C47.7713 60.2319 47.946 56.7852 47.9459 54.9319C47.9459 54.7202 47.9436 54.5292 47.9402 54.3621C47.9301 53.868 47.9101 53.5821 47.9101 53.5821C47.8053 53.8682 47.698 54.1503 47.5883 54.4283C46.4769 57.2454 45.1207 59.6495 43.6221 61.6748ZM40.4395 69.6473L41.6423 70.48L43.5656 67.7017C41.6423 70.48 41.643 70.4805 41.6437 70.481L41.6452 70.482L41.656 70.4894L41.6745 70.5021C41.6885 70.5116 41.7056 70.5231 41.7258 70.5366C41.7661 70.5636 41.8189 70.5983 41.8833 70.6396C42.0121 70.7222 42.1885 70.8318 42.407 70.9593C42.8418 71.2132 43.4548 71.5447 44.1996 71.8757C45.6476 72.5193 47.7977 73.253 50.2031 73.253C54.4301 73.253 57.8056 71.1846 60.0297 68.9608C61.1517 67.8389 62.0551 66.6081 62.6955 65.4249C63.2835 64.3386 63.84 62.9432 63.84 61.547C63.84 60.2892 63.5298 59.0623 62.7782 57.9979C62.0532 56.9714 61.1158 56.3798 60.3681 56.0184C59.7147 55.7027 59.0149 55.478 58.5569 55.331C58.5197 55.319 58.4841 55.3076 58.4503 55.2967C57.9032 55.1202 57.6101 55.0162 57.3862 54.9043C56.8347 54.6285 56.0339 53.9777 55.1467 53.0399C54.8768 52.7546 54.6204 52.4658 54.3839 52.1871C55.0004 50.5771 55.513 48.5167 55.513 46.462C55.513 45.1087 55.3093 43.6742 54.9662 42.312C55.6148 42.3576 56.2494 42.3771 56.8363 42.3568C59.0991 42.2788 62.2392 41.7542 64.9181 39.9842C67.8001 38.08 69.874 34.8956 69.874 30.2908C69.874 25.8703 68.1381 22.8281 65.6607 21.0065C63.3732 19.3245 60.8184 18.9468 59.3748 18.9468C58.0274 18.9468 56.8249 19.5137 56.1508 19.8489C55.7435 20.0514 55.1791 20.3604 54.6643 20.6423C54.347 20.816 54.0486 20.9795 53.8174 21.1012C53.3413 21.352 52.8716 21.5829 52.4025 21.7837C52.424 21.7617 52.4454 21.7397 52.4666 21.7177C54.0708 20.0582 55.4225 17.9506 56.1426 16.0302L57.1279 13.4026L49.8557 9.00897C47.424 4.0119 42.4407 1.80905 37.2072 1.48943C37.0293 1.35143 36.8343 1.21325 36.6273 1.08639C35.6161 0.466566 34.3959 0.0936578 32.9028 0.00583091L32.8037 0H32.7044C30.3778 0 28.5003 1.0131 27.343 2.69141C26.7606 3.53611 26.4282 4.44828 26.2497 5.30658C25.6644 5.81177 24.9576 6.50547 24.2539 7.40195C22.8471 9.19394 21.4595 11.7939 21.0923 15.2311C20.4732 15.6926 19.6661 16.3053 18.731 17.0412C16.5562 18.7528 13.6594 21.1533 10.8144 23.8838C8.10353 26.4856 5.4913 29.6397 3.53314 32.6654C2.55327 34.1794 1.7 35.7183 1.08114 37.1874C0.484255 38.6042 1.61126e-06 40.1999 0 41.7554C0 44.5858 1.57596 46.9517 3.63403 48.4898C5.71273 50.0434 8.46296 50.9272 11.4646 50.9272C13.2963 50.9272 15.0139 50.5698 16.4581 49.6067C16.9868 51.0664 17.6737 52.4438 18.462 53.6942C19.0136 54.5691 19.6328 55.4097 20.308 56.1921C20.1821 56.2653 20.057 56.3406 19.9332 56.4179C17.7453 57.7836 15.4314 60.1338 15.3277 63.8668C15.2589 66.3462 16.26 69.1197 18.7266 71.1539C21.1737 73.172 24.7052 74.1796 29.2374 73.9736C32.7306 73.8149 36.7099 72.418 40.4395 69.6473ZM45.475 64.9138L45.4777 64.9157C45.474 64.9132 45.4731 64.9126 45.475 64.9138Z" fill="black"/>
</svg>
